; NON-PLATED HOLES START AT T1
; THROUGH (PLATED) HOLES START AT T100
M48
INCH
T100C0.022334
T101C0.038000
T102C0.040000
%
T100
X009620Y011066
X009620Y003078
X009620Y005075
X000646Y006073
X000646Y011066
X000646Y005075
X009620Y017056
X000646Y009069
X000646Y017056
X009620Y014061
X000646Y014061
X009620Y008070
X009620Y006073
X000646Y012064
X000646Y013062
X009620Y010067
X009620Y012064
X009620Y015059
X000646Y010067
X000646Y016058
X000646Y008070
X009620Y016058
X009620Y004076
X000646Y003078
X000646Y004076
X009620Y007072
X009620Y013062
X009620Y009069
X000646Y007072
X000646Y015059
T101
X003620Y002064
X002620Y002064
X006620Y002064
X004620Y002064
X005620Y002064
T102
X004620Y016064
X002651Y016064
X006588Y016064
T00
M30
