G04 MADE WITH FRITZING*
G04 WWW.FRITZING.ORG*
G04 SINGLE SIDED*
G04 HOLES NOT PLATED*
G04 CONTOUR ON CENTER OF CONTOUR VECTOR*
%ASAXBY*%
%FSLAX23Y23*%
%MOIN*%
%OFA0B0*%
%SFA1.0B1.0*%
%ADD10C,0.047859*%
%ADD11C,0.080000*%
%ADD12C,0.078000*%
%ADD13R,0.080000X0.080000*%
%ADD14C,0.024000*%
%ADD15C,0.032000*%
%ADD16R,0.001000X0.001000*%
%LNCOPPER0*%
G90*
G70*
G54D10*
X962Y1506D03*
X65Y1706D03*
X65Y1606D03*
X65Y1506D03*
X65Y1406D03*
X65Y1306D03*
X962Y1606D03*
X962Y1706D03*
X962Y1406D03*
X65Y1206D03*
X65Y1107D03*
X65Y1007D03*
X65Y907D03*
X65Y807D03*
X65Y707D03*
X65Y607D03*
X65Y508D03*
X65Y408D03*
X65Y308D03*
X962Y1007D03*
X962Y907D03*
X962Y807D03*
X962Y707D03*
X962Y607D03*
X962Y508D03*
X962Y408D03*
X962Y308D03*
X962Y1306D03*
X962Y1206D03*
X962Y1107D03*
G54D11*
X265Y1606D03*
X462Y1606D03*
X659Y1606D03*
G54D12*
X262Y206D03*
X362Y206D03*
X462Y206D03*
X562Y206D03*
X662Y206D03*
G54D13*
X265Y1606D03*
G54D14*
X63Y206D02*
X232Y206D01*
D02*
X64Y286D02*
X63Y206D01*
G54D15*
D02*
X265Y1570D02*
X262Y242D01*
G54D14*
D02*
X462Y1638D02*
X461Y1806D01*
D02*
X461Y1806D02*
X862Y1806D01*
D02*
X862Y1806D02*
X862Y1407D01*
D02*
X862Y1407D02*
X940Y1406D01*
G54D15*
D02*
X763Y206D02*
X763Y1606D01*
D02*
X763Y1606D02*
X696Y1606D01*
D02*
X698Y206D02*
X763Y206D01*
G54D14*
D02*
X763Y406D02*
X940Y407D01*
D02*
X692Y206D02*
X763Y206D01*
D02*
X763Y206D02*
X763Y406D01*
G54D16*
X485Y1209D02*
X507Y1209D01*
X484Y1208D02*
X527Y1208D01*
X483Y1207D02*
X530Y1207D01*
X483Y1206D02*
X532Y1206D01*
X483Y1205D02*
X533Y1205D01*
X483Y1204D02*
X534Y1204D01*
X483Y1203D02*
X535Y1203D01*
X484Y1202D02*
X536Y1202D01*
X484Y1201D02*
X536Y1201D01*
X486Y1200D02*
X537Y1200D01*
X506Y1199D02*
X537Y1199D01*
X526Y1198D02*
X538Y1198D01*
X528Y1197D02*
X538Y1197D01*
X529Y1196D02*
X538Y1196D01*
X529Y1195D02*
X538Y1195D01*
X529Y1194D02*
X538Y1194D01*
X529Y1193D02*
X539Y1193D01*
X529Y1192D02*
X539Y1192D01*
X529Y1191D02*
X539Y1191D01*
X529Y1190D02*
X539Y1190D01*
X529Y1189D02*
X539Y1189D01*
X529Y1188D02*
X539Y1188D01*
X529Y1187D02*
X538Y1187D01*
X529Y1186D02*
X538Y1186D01*
X529Y1185D02*
X538Y1185D01*
X528Y1184D02*
X538Y1184D01*
X527Y1183D02*
X538Y1183D01*
X527Y1182D02*
X537Y1182D01*
X526Y1181D02*
X537Y1181D01*
X525Y1180D02*
X536Y1180D01*
X525Y1179D02*
X536Y1179D01*
X524Y1178D02*
X535Y1178D01*
X524Y1177D02*
X534Y1177D01*
X523Y1176D02*
X534Y1176D01*
X522Y1175D02*
X533Y1175D01*
X522Y1174D02*
X533Y1174D01*
X521Y1173D02*
X532Y1173D01*
X520Y1172D02*
X531Y1172D01*
X520Y1171D02*
X531Y1171D01*
X519Y1170D02*
X531Y1170D01*
X485Y1169D02*
X536Y1169D01*
X484Y1168D02*
X537Y1168D01*
X483Y1167D02*
X538Y1167D01*
X483Y1166D02*
X538Y1166D01*
X483Y1165D02*
X538Y1165D01*
X483Y1164D02*
X538Y1164D01*
X483Y1163D02*
X538Y1163D01*
X484Y1162D02*
X537Y1162D01*
X485Y1161D02*
X537Y1161D01*
X487Y1160D02*
X534Y1160D01*
X528Y1137D02*
X536Y1137D01*
X526Y1136D02*
X537Y1136D01*
X486Y1135D02*
X488Y1135D01*
X526Y1135D02*
X538Y1135D01*
X485Y1134D02*
X490Y1134D01*
X525Y1134D02*
X538Y1134D01*
X484Y1133D02*
X491Y1133D01*
X524Y1133D02*
X538Y1133D01*
X483Y1132D02*
X492Y1132D01*
X523Y1132D02*
X539Y1132D01*
X483Y1131D02*
X492Y1131D01*
X522Y1131D02*
X539Y1131D01*
X483Y1130D02*
X492Y1130D01*
X521Y1130D02*
X539Y1130D01*
X483Y1129D02*
X492Y1129D01*
X520Y1129D02*
X539Y1129D01*
X483Y1128D02*
X492Y1128D01*
X519Y1128D02*
X539Y1128D01*
X483Y1127D02*
X492Y1127D01*
X518Y1127D02*
X539Y1127D01*
X483Y1126D02*
X492Y1126D01*
X517Y1126D02*
X539Y1126D01*
X483Y1125D02*
X492Y1125D01*
X516Y1125D02*
X539Y1125D01*
X483Y1124D02*
X492Y1124D01*
X515Y1124D02*
X539Y1124D01*
X483Y1123D02*
X492Y1123D01*
X514Y1123D02*
X527Y1123D01*
X529Y1123D02*
X539Y1123D01*
X483Y1122D02*
X492Y1122D01*
X513Y1122D02*
X526Y1122D01*
X529Y1122D02*
X539Y1122D01*
X483Y1121D02*
X492Y1121D01*
X512Y1121D02*
X525Y1121D01*
X529Y1121D02*
X539Y1121D01*
X483Y1120D02*
X492Y1120D01*
X511Y1120D02*
X524Y1120D01*
X529Y1120D02*
X539Y1120D01*
X483Y1119D02*
X492Y1119D01*
X510Y1119D02*
X523Y1119D01*
X529Y1119D02*
X539Y1119D01*
X483Y1118D02*
X492Y1118D01*
X509Y1118D02*
X522Y1118D01*
X529Y1118D02*
X539Y1118D01*
X483Y1117D02*
X492Y1117D01*
X508Y1117D02*
X521Y1117D01*
X529Y1117D02*
X539Y1117D01*
X483Y1116D02*
X492Y1116D01*
X507Y1116D02*
X520Y1116D01*
X529Y1116D02*
X539Y1116D01*
X483Y1115D02*
X492Y1115D01*
X506Y1115D02*
X519Y1115D01*
X529Y1115D02*
X539Y1115D01*
X483Y1114D02*
X492Y1114D01*
X505Y1114D02*
X518Y1114D01*
X529Y1114D02*
X539Y1114D01*
X483Y1113D02*
X492Y1113D01*
X504Y1113D02*
X517Y1113D01*
X529Y1113D02*
X539Y1113D01*
X483Y1112D02*
X492Y1112D01*
X503Y1112D02*
X516Y1112D01*
X529Y1112D02*
X539Y1112D01*
X483Y1111D02*
X492Y1111D01*
X502Y1111D02*
X515Y1111D01*
X529Y1111D02*
X539Y1111D01*
X483Y1110D02*
X492Y1110D01*
X502Y1110D02*
X514Y1110D01*
X529Y1110D02*
X539Y1110D01*
X483Y1109D02*
X492Y1109D01*
X501Y1109D02*
X513Y1109D01*
X529Y1109D02*
X539Y1109D01*
X483Y1108D02*
X492Y1108D01*
X500Y1108D02*
X513Y1108D01*
X529Y1108D02*
X539Y1108D01*
X483Y1107D02*
X492Y1107D01*
X499Y1107D02*
X512Y1107D01*
X529Y1107D02*
X539Y1107D01*
X483Y1106D02*
X492Y1106D01*
X498Y1106D02*
X511Y1106D01*
X529Y1106D02*
X539Y1106D01*
X483Y1105D02*
X492Y1105D01*
X497Y1105D02*
X510Y1105D01*
X529Y1105D02*
X539Y1105D01*
X483Y1104D02*
X492Y1104D01*
X496Y1104D02*
X509Y1104D01*
X529Y1104D02*
X539Y1104D01*
X483Y1103D02*
X492Y1103D01*
X495Y1103D02*
X508Y1103D01*
X529Y1103D02*
X539Y1103D01*
X483Y1102D02*
X492Y1102D01*
X494Y1102D02*
X507Y1102D01*
X529Y1102D02*
X539Y1102D01*
X483Y1101D02*
X506Y1101D01*
X529Y1101D02*
X539Y1101D01*
X483Y1100D02*
X505Y1100D01*
X529Y1100D02*
X539Y1100D01*
X483Y1099D02*
X504Y1099D01*
X529Y1099D02*
X539Y1099D01*
X483Y1098D02*
X503Y1098D01*
X529Y1098D02*
X539Y1098D01*
X483Y1097D02*
X502Y1097D01*
X529Y1097D02*
X539Y1097D01*
X483Y1096D02*
X501Y1096D01*
X529Y1096D02*
X539Y1096D01*
X483Y1095D02*
X500Y1095D01*
X529Y1095D02*
X539Y1095D01*
X483Y1094D02*
X499Y1094D01*
X529Y1094D02*
X539Y1094D01*
X483Y1093D02*
X498Y1093D01*
X529Y1093D02*
X539Y1093D01*
X483Y1092D02*
X497Y1092D01*
X530Y1092D02*
X538Y1092D01*
X483Y1091D02*
X496Y1091D01*
X530Y1091D02*
X538Y1091D01*
X484Y1090D02*
X495Y1090D01*
X531Y1090D02*
X537Y1090D01*
X485Y1089D02*
X494Y1089D01*
X532Y1089D02*
X536Y1089D01*
X487Y1088D02*
X492Y1088D01*
X534Y1088D02*
X534Y1088D01*
X515Y1065D02*
X528Y1065D01*
X512Y1064D02*
X530Y1064D01*
X510Y1063D02*
X532Y1063D01*
X509Y1062D02*
X533Y1062D01*
X508Y1061D02*
X534Y1061D01*
X507Y1060D02*
X535Y1060D01*
X506Y1059D02*
X536Y1059D01*
X506Y1058D02*
X537Y1058D01*
X505Y1057D02*
X537Y1057D01*
X505Y1056D02*
X538Y1056D01*
X485Y1055D02*
X489Y1055D01*
X505Y1055D02*
X516Y1055D01*
X527Y1055D02*
X538Y1055D01*
X484Y1054D02*
X491Y1054D01*
X504Y1054D02*
X514Y1054D01*
X528Y1054D02*
X538Y1054D01*
X483Y1053D02*
X491Y1053D01*
X504Y1053D02*
X514Y1053D01*
X529Y1053D02*
X538Y1053D01*
X483Y1052D02*
X492Y1052D01*
X504Y1052D02*
X513Y1052D01*
X529Y1052D02*
X538Y1052D01*
X483Y1051D02*
X492Y1051D01*
X504Y1051D02*
X513Y1051D01*
X529Y1051D02*
X539Y1051D01*
X483Y1050D02*
X492Y1050D01*
X504Y1050D02*
X513Y1050D01*
X529Y1050D02*
X539Y1050D01*
X483Y1049D02*
X492Y1049D01*
X504Y1049D02*
X513Y1049D01*
X529Y1049D02*
X539Y1049D01*
X483Y1048D02*
X492Y1048D01*
X504Y1048D02*
X513Y1048D01*
X529Y1048D02*
X539Y1048D01*
X483Y1047D02*
X492Y1047D01*
X504Y1047D02*
X513Y1047D01*
X529Y1047D02*
X539Y1047D01*
X483Y1046D02*
X492Y1046D01*
X504Y1046D02*
X513Y1046D01*
X529Y1046D02*
X539Y1046D01*
X483Y1045D02*
X492Y1045D01*
X504Y1045D02*
X513Y1045D01*
X529Y1045D02*
X539Y1045D01*
X483Y1044D02*
X492Y1044D01*
X504Y1044D02*
X513Y1044D01*
X529Y1044D02*
X539Y1044D01*
X483Y1043D02*
X492Y1043D01*
X504Y1043D02*
X513Y1043D01*
X529Y1043D02*
X539Y1043D01*
X483Y1042D02*
X492Y1042D01*
X504Y1042D02*
X513Y1042D01*
X529Y1042D02*
X539Y1042D01*
X483Y1041D02*
X492Y1041D01*
X504Y1041D02*
X513Y1041D01*
X529Y1041D02*
X539Y1041D01*
X483Y1040D02*
X492Y1040D01*
X504Y1040D02*
X513Y1040D01*
X529Y1040D02*
X539Y1040D01*
X483Y1039D02*
X492Y1039D01*
X504Y1039D02*
X513Y1039D01*
X529Y1039D02*
X539Y1039D01*
X483Y1038D02*
X492Y1038D01*
X504Y1038D02*
X513Y1038D01*
X529Y1038D02*
X539Y1038D01*
X483Y1037D02*
X492Y1037D01*
X504Y1037D02*
X513Y1037D01*
X529Y1037D02*
X539Y1037D01*
X483Y1036D02*
X492Y1036D01*
X504Y1036D02*
X513Y1036D01*
X529Y1036D02*
X539Y1036D01*
X483Y1035D02*
X492Y1035D01*
X504Y1035D02*
X513Y1035D01*
X528Y1035D02*
X538Y1035D01*
X483Y1034D02*
X492Y1034D01*
X504Y1034D02*
X513Y1034D01*
X527Y1034D02*
X538Y1034D01*
X483Y1033D02*
X492Y1033D01*
X504Y1033D02*
X513Y1033D01*
X527Y1033D02*
X538Y1033D01*
X483Y1032D02*
X492Y1032D01*
X504Y1032D02*
X513Y1032D01*
X526Y1032D02*
X537Y1032D01*
X483Y1031D02*
X492Y1031D01*
X504Y1031D02*
X513Y1031D01*
X526Y1031D02*
X536Y1031D01*
X483Y1030D02*
X492Y1030D01*
X504Y1030D02*
X513Y1030D01*
X525Y1030D02*
X536Y1030D01*
X483Y1029D02*
X493Y1029D01*
X504Y1029D02*
X514Y1029D01*
X525Y1029D02*
X535Y1029D01*
X483Y1028D02*
X495Y1028D01*
X504Y1028D02*
X515Y1028D01*
X524Y1028D02*
X535Y1028D01*
X484Y1027D02*
X516Y1027D01*
X523Y1027D02*
X534Y1027D01*
X484Y1026D02*
X534Y1026D01*
X485Y1025D02*
X536Y1025D01*
X485Y1024D02*
X537Y1024D01*
X486Y1023D02*
X538Y1023D01*
X487Y1022D02*
X538Y1022D01*
X488Y1021D02*
X538Y1021D01*
X489Y1020D02*
X538Y1020D01*
X491Y1019D02*
X538Y1019D01*
X493Y1018D02*
X537Y1018D01*
X503Y1017D02*
X536Y1017D01*
X532Y1016D02*
X534Y1016D01*
X485Y988D02*
X489Y988D01*
X532Y988D02*
X536Y988D01*
X484Y987D02*
X491Y987D01*
X531Y987D02*
X537Y987D01*
X483Y986D02*
X491Y986D01*
X530Y986D02*
X538Y986D01*
X483Y985D02*
X492Y985D01*
X530Y985D02*
X538Y985D01*
X483Y984D02*
X492Y984D01*
X529Y984D02*
X538Y984D01*
X483Y983D02*
X492Y983D01*
X529Y983D02*
X539Y983D01*
X483Y982D02*
X492Y982D01*
X529Y982D02*
X539Y982D01*
X483Y981D02*
X492Y981D01*
X529Y981D02*
X539Y981D01*
X483Y980D02*
X492Y980D01*
X529Y980D02*
X539Y980D01*
X483Y979D02*
X492Y979D01*
X529Y979D02*
X539Y979D01*
X460Y978D02*
X468Y978D01*
X483Y978D02*
X492Y978D01*
X529Y978D02*
X539Y978D01*
X459Y977D02*
X469Y977D01*
X483Y977D02*
X492Y977D01*
X529Y977D02*
X539Y977D01*
X458Y976D02*
X470Y976D01*
X483Y976D02*
X492Y976D01*
X529Y976D02*
X539Y976D01*
X458Y975D02*
X470Y975D01*
X483Y975D02*
X492Y975D01*
X529Y975D02*
X539Y975D01*
X457Y974D02*
X471Y974D01*
X483Y974D02*
X492Y974D01*
X529Y974D02*
X539Y974D01*
X457Y973D02*
X471Y973D01*
X483Y973D02*
X539Y973D01*
X457Y972D02*
X471Y972D01*
X483Y972D02*
X539Y972D01*
X457Y971D02*
X471Y971D01*
X483Y971D02*
X539Y971D01*
X457Y970D02*
X471Y970D01*
X483Y970D02*
X539Y970D01*
X457Y969D02*
X471Y969D01*
X483Y969D02*
X539Y969D01*
X458Y968D02*
X471Y968D01*
X483Y968D02*
X539Y968D01*
X458Y967D02*
X470Y967D01*
X483Y967D02*
X539Y967D01*
X458Y966D02*
X470Y966D01*
X484Y966D02*
X539Y966D01*
X459Y965D02*
X469Y965D01*
X485Y965D02*
X539Y965D01*
X461Y964D02*
X467Y964D01*
X487Y964D02*
X539Y964D01*
X529Y963D02*
X539Y963D01*
X529Y962D02*
X539Y962D01*
X529Y961D02*
X539Y961D01*
X529Y960D02*
X539Y960D01*
X529Y959D02*
X539Y959D01*
X529Y958D02*
X539Y958D01*
X529Y957D02*
X539Y957D01*
X529Y956D02*
X539Y956D01*
X529Y955D02*
X539Y955D01*
X529Y954D02*
X539Y954D01*
X530Y953D02*
X538Y953D01*
X530Y952D02*
X538Y952D01*
X531Y951D02*
X537Y951D01*
X532Y950D02*
X536Y950D01*
X534Y949D02*
X534Y949D01*
X485Y921D02*
X536Y921D01*
X484Y920D02*
X537Y920D01*
X483Y919D02*
X538Y919D01*
X483Y918D02*
X538Y918D01*
X483Y917D02*
X538Y917D01*
X483Y916D02*
X538Y916D01*
X483Y915D02*
X538Y915D01*
X484Y914D02*
X538Y914D01*
X484Y913D02*
X537Y913D01*
X486Y912D02*
X535Y912D01*
X493Y911D02*
X506Y911D01*
X492Y910D02*
X505Y910D01*
X492Y909D02*
X504Y909D01*
X491Y908D02*
X503Y908D01*
X490Y907D02*
X502Y907D01*
X489Y906D02*
X501Y906D01*
X488Y905D02*
X500Y905D01*
X487Y904D02*
X500Y904D01*
X486Y903D02*
X499Y903D01*
X486Y902D02*
X498Y902D01*
X485Y901D02*
X497Y901D01*
X484Y900D02*
X496Y900D01*
X483Y899D02*
X495Y899D01*
X483Y898D02*
X494Y898D01*
X483Y897D02*
X494Y897D01*
X483Y896D02*
X493Y896D01*
X483Y895D02*
X492Y895D01*
X483Y894D02*
X492Y894D01*
X483Y893D02*
X492Y893D01*
X483Y892D02*
X492Y892D01*
X483Y891D02*
X492Y891D01*
X483Y890D02*
X492Y890D01*
X483Y889D02*
X492Y889D01*
X483Y888D02*
X492Y888D01*
X483Y887D02*
X492Y887D01*
X483Y886D02*
X492Y886D01*
X483Y885D02*
X492Y885D01*
X483Y884D02*
X493Y884D01*
X483Y883D02*
X494Y883D01*
X484Y882D02*
X500Y882D01*
X484Y881D02*
X503Y881D01*
X485Y880D02*
X504Y880D01*
X485Y879D02*
X504Y879D01*
X486Y878D02*
X504Y878D01*
X487Y877D02*
X504Y877D01*
X488Y876D02*
X504Y876D01*
X489Y875D02*
X504Y875D01*
X490Y874D02*
X503Y874D01*
X492Y873D02*
X502Y873D01*
X497Y872D02*
X500Y872D01*
X514Y777D02*
X528Y777D01*
X512Y776D02*
X531Y776D01*
X510Y775D02*
X532Y775D01*
X509Y774D02*
X533Y774D01*
X508Y773D02*
X534Y773D01*
X507Y772D02*
X535Y772D01*
X506Y771D02*
X536Y771D01*
X506Y770D02*
X537Y770D01*
X505Y769D02*
X537Y769D01*
X505Y768D02*
X538Y768D01*
X485Y767D02*
X490Y767D01*
X505Y767D02*
X516Y767D01*
X527Y767D02*
X538Y767D01*
X484Y766D02*
X491Y766D01*
X504Y766D02*
X514Y766D01*
X528Y766D02*
X538Y766D01*
X483Y765D02*
X491Y765D01*
X504Y765D02*
X514Y765D01*
X529Y765D02*
X538Y765D01*
X483Y764D02*
X492Y764D01*
X504Y764D02*
X513Y764D01*
X529Y764D02*
X538Y764D01*
X483Y763D02*
X492Y763D01*
X504Y763D02*
X513Y763D01*
X529Y763D02*
X539Y763D01*
X483Y762D02*
X492Y762D01*
X504Y762D02*
X513Y762D01*
X529Y762D02*
X539Y762D01*
X483Y761D02*
X492Y761D01*
X504Y761D02*
X513Y761D01*
X529Y761D02*
X539Y761D01*
X483Y760D02*
X492Y760D01*
X504Y760D02*
X513Y760D01*
X529Y760D02*
X539Y760D01*
X483Y759D02*
X492Y759D01*
X504Y759D02*
X513Y759D01*
X529Y759D02*
X539Y759D01*
X483Y758D02*
X492Y758D01*
X504Y758D02*
X513Y758D01*
X529Y758D02*
X539Y758D01*
X483Y757D02*
X492Y757D01*
X504Y757D02*
X513Y757D01*
X529Y757D02*
X539Y757D01*
X483Y756D02*
X492Y756D01*
X504Y756D02*
X513Y756D01*
X529Y756D02*
X539Y756D01*
X483Y755D02*
X492Y755D01*
X504Y755D02*
X513Y755D01*
X529Y755D02*
X539Y755D01*
X483Y754D02*
X492Y754D01*
X504Y754D02*
X513Y754D01*
X529Y754D02*
X539Y754D01*
X483Y753D02*
X492Y753D01*
X504Y753D02*
X513Y753D01*
X529Y753D02*
X539Y753D01*
X483Y752D02*
X492Y752D01*
X504Y752D02*
X513Y752D01*
X529Y752D02*
X539Y752D01*
X483Y751D02*
X492Y751D01*
X504Y751D02*
X513Y751D01*
X529Y751D02*
X539Y751D01*
X483Y750D02*
X492Y750D01*
X504Y750D02*
X513Y750D01*
X529Y750D02*
X539Y750D01*
X483Y749D02*
X492Y749D01*
X504Y749D02*
X513Y749D01*
X529Y749D02*
X539Y749D01*
X483Y748D02*
X492Y748D01*
X504Y748D02*
X513Y748D01*
X529Y748D02*
X539Y748D01*
X483Y747D02*
X492Y747D01*
X504Y747D02*
X513Y747D01*
X528Y747D02*
X538Y747D01*
X483Y746D02*
X492Y746D01*
X504Y746D02*
X513Y746D01*
X527Y746D02*
X538Y746D01*
X483Y745D02*
X492Y745D01*
X504Y745D02*
X513Y745D01*
X527Y745D02*
X538Y745D01*
X483Y744D02*
X492Y744D01*
X504Y744D02*
X513Y744D01*
X526Y744D02*
X537Y744D01*
X483Y743D02*
X492Y743D01*
X504Y743D02*
X513Y743D01*
X526Y743D02*
X536Y743D01*
X483Y742D02*
X492Y742D01*
X504Y742D02*
X513Y742D01*
X525Y742D02*
X536Y742D01*
X483Y741D02*
X493Y741D01*
X504Y741D02*
X514Y741D01*
X525Y741D02*
X535Y741D01*
X483Y740D02*
X495Y740D01*
X504Y740D02*
X515Y740D01*
X524Y740D02*
X535Y740D01*
X484Y739D02*
X516Y739D01*
X523Y739D02*
X534Y739D01*
X484Y738D02*
X534Y738D01*
X485Y737D02*
X536Y737D01*
X485Y736D02*
X537Y736D01*
X486Y735D02*
X538Y735D01*
X487Y734D02*
X538Y734D01*
X488Y733D02*
X538Y733D01*
X489Y732D02*
X538Y732D01*
X491Y731D02*
X538Y731D01*
X493Y730D02*
X537Y730D01*
X505Y729D02*
X536Y729D01*
X534Y728D02*
X534Y728D01*
X464Y705D02*
X536Y705D01*
X463Y704D02*
X537Y704D01*
X462Y703D02*
X538Y703D01*
X462Y702D02*
X538Y702D01*
X462Y701D02*
X538Y701D01*
X462Y700D02*
X538Y700D01*
X462Y699D02*
X538Y699D01*
X463Y698D02*
X538Y698D01*
X463Y697D02*
X537Y697D01*
X465Y696D02*
X535Y696D01*
X491Y695D02*
X502Y695D01*
X490Y694D02*
X501Y694D01*
X490Y693D02*
X501Y693D01*
X489Y692D02*
X500Y692D01*
X488Y691D02*
X499Y691D01*
X488Y690D02*
X499Y690D01*
X487Y689D02*
X498Y689D01*
X486Y688D02*
X497Y688D01*
X486Y687D02*
X497Y687D01*
X485Y686D02*
X496Y686D01*
X485Y685D02*
X495Y685D01*
X484Y684D02*
X495Y684D01*
X484Y683D02*
X494Y683D01*
X483Y682D02*
X494Y682D01*
X483Y681D02*
X493Y681D01*
X483Y680D02*
X492Y680D01*
X483Y679D02*
X492Y679D01*
X483Y678D02*
X492Y678D01*
X483Y677D02*
X492Y677D01*
X483Y676D02*
X492Y676D01*
X483Y675D02*
X492Y675D01*
X483Y674D02*
X492Y674D01*
X483Y673D02*
X492Y673D01*
X483Y672D02*
X492Y672D01*
X483Y671D02*
X492Y671D01*
X483Y670D02*
X493Y670D01*
X483Y669D02*
X493Y669D01*
X483Y668D02*
X495Y668D01*
X484Y667D02*
X508Y667D01*
X484Y666D02*
X534Y666D01*
X485Y665D02*
X537Y665D01*
X485Y664D02*
X537Y664D01*
X486Y663D02*
X538Y663D01*
X487Y662D02*
X538Y662D01*
X488Y661D02*
X538Y661D01*
X489Y660D02*
X538Y660D01*
X491Y659D02*
X538Y659D01*
X493Y658D02*
X537Y658D01*
X506Y657D02*
X536Y657D01*
X486Y634D02*
X536Y634D01*
X484Y633D02*
X537Y633D01*
X483Y632D02*
X538Y632D01*
X483Y631D02*
X538Y631D01*
X483Y630D02*
X538Y630D01*
X483Y629D02*
X538Y629D01*
X483Y628D02*
X538Y628D01*
X484Y627D02*
X538Y627D01*
X484Y626D02*
X537Y626D01*
X486Y625D02*
X536Y625D01*
X486Y624D02*
X498Y624D01*
X485Y623D02*
X497Y623D01*
X484Y622D02*
X496Y622D01*
X484Y621D02*
X495Y621D01*
X483Y620D02*
X494Y620D01*
X483Y619D02*
X494Y619D01*
X483Y618D02*
X493Y618D01*
X483Y617D02*
X492Y617D01*
X483Y616D02*
X492Y616D01*
X483Y615D02*
X492Y615D01*
X483Y614D02*
X533Y614D01*
X483Y613D02*
X536Y613D01*
X484Y612D02*
X537Y612D01*
X484Y611D02*
X538Y611D01*
X484Y610D02*
X538Y610D01*
X485Y609D02*
X538Y609D01*
X486Y608D02*
X538Y608D01*
X487Y607D02*
X538Y607D01*
X487Y606D02*
X537Y606D01*
X486Y605D02*
X536Y605D01*
X486Y604D02*
X534Y604D01*
X485Y603D02*
X497Y603D01*
X484Y602D02*
X496Y602D01*
X484Y601D02*
X495Y601D01*
X484Y600D02*
X494Y600D01*
X483Y599D02*
X493Y599D01*
X483Y598D02*
X493Y598D01*
X483Y597D02*
X492Y597D01*
X483Y596D02*
X492Y596D01*
X483Y595D02*
X493Y595D01*
X483Y594D02*
X517Y594D01*
X484Y593D02*
X535Y593D01*
X484Y592D02*
X537Y592D01*
X485Y591D02*
X538Y591D01*
X485Y590D02*
X538Y590D01*
X486Y589D02*
X538Y589D01*
X487Y588D02*
X538Y588D01*
X488Y587D02*
X538Y587D01*
X490Y586D02*
X538Y586D01*
X493Y585D02*
X537Y585D01*
X516Y584D02*
X536Y584D01*
X496Y561D02*
X525Y561D01*
X494Y560D02*
X528Y560D01*
X492Y559D02*
X529Y559D01*
X491Y558D02*
X530Y558D01*
X490Y557D02*
X531Y557D01*
X489Y556D02*
X532Y556D01*
X488Y555D02*
X533Y555D01*
X487Y554D02*
X534Y554D01*
X486Y553D02*
X535Y553D01*
X486Y552D02*
X536Y552D01*
X485Y551D02*
X497Y551D01*
X508Y551D02*
X517Y551D01*
X524Y551D02*
X536Y551D01*
X484Y550D02*
X496Y550D01*
X508Y550D02*
X517Y550D01*
X525Y550D02*
X537Y550D01*
X484Y549D02*
X495Y549D01*
X508Y549D02*
X517Y549D01*
X526Y549D02*
X537Y549D01*
X484Y548D02*
X494Y548D01*
X508Y548D02*
X517Y548D01*
X527Y548D02*
X538Y548D01*
X483Y547D02*
X493Y547D01*
X508Y547D02*
X517Y547D01*
X528Y547D02*
X538Y547D01*
X483Y546D02*
X493Y546D01*
X508Y546D02*
X517Y546D01*
X528Y546D02*
X538Y546D01*
X483Y545D02*
X492Y545D01*
X508Y545D02*
X517Y545D01*
X529Y545D02*
X538Y545D01*
X483Y544D02*
X492Y544D01*
X508Y544D02*
X517Y544D01*
X529Y544D02*
X538Y544D01*
X483Y543D02*
X492Y543D01*
X508Y543D02*
X517Y543D01*
X529Y543D02*
X539Y543D01*
X483Y542D02*
X492Y542D01*
X508Y542D02*
X517Y542D01*
X529Y542D02*
X539Y542D01*
X483Y541D02*
X492Y541D01*
X508Y541D02*
X517Y541D01*
X529Y541D02*
X539Y541D01*
X483Y540D02*
X492Y540D01*
X508Y540D02*
X517Y540D01*
X529Y540D02*
X539Y540D01*
X483Y539D02*
X492Y539D01*
X508Y539D02*
X517Y539D01*
X529Y539D02*
X539Y539D01*
X483Y538D02*
X492Y538D01*
X508Y538D02*
X517Y538D01*
X529Y538D02*
X539Y538D01*
X483Y537D02*
X492Y537D01*
X508Y537D02*
X517Y537D01*
X529Y537D02*
X539Y537D01*
X483Y536D02*
X492Y536D01*
X508Y536D02*
X517Y536D01*
X529Y536D02*
X539Y536D01*
X483Y535D02*
X492Y535D01*
X508Y535D02*
X517Y535D01*
X529Y535D02*
X539Y535D01*
X483Y534D02*
X492Y534D01*
X508Y534D02*
X517Y534D01*
X529Y534D02*
X539Y534D01*
X483Y533D02*
X492Y533D01*
X508Y533D02*
X517Y533D01*
X529Y533D02*
X539Y533D01*
X483Y532D02*
X492Y532D01*
X508Y532D02*
X517Y532D01*
X529Y532D02*
X539Y532D01*
X483Y531D02*
X492Y531D01*
X508Y531D02*
X517Y531D01*
X529Y531D02*
X539Y531D01*
X483Y530D02*
X492Y530D01*
X508Y530D02*
X517Y530D01*
X529Y530D02*
X539Y530D01*
X483Y529D02*
X492Y529D01*
X508Y529D02*
X517Y529D01*
X529Y529D02*
X539Y529D01*
X483Y528D02*
X493Y528D01*
X508Y528D02*
X517Y528D01*
X529Y528D02*
X539Y528D01*
X483Y527D02*
X493Y527D01*
X508Y527D02*
X517Y527D01*
X529Y527D02*
X539Y527D01*
X484Y526D02*
X494Y526D01*
X508Y526D02*
X517Y526D01*
X529Y526D02*
X539Y526D01*
X484Y525D02*
X495Y525D01*
X508Y525D02*
X517Y525D01*
X529Y525D02*
X539Y525D01*
X484Y524D02*
X496Y524D01*
X508Y524D02*
X517Y524D01*
X529Y524D02*
X539Y524D01*
X485Y523D02*
X497Y523D01*
X508Y523D02*
X517Y523D01*
X529Y523D02*
X539Y523D01*
X486Y522D02*
X517Y522D01*
X529Y522D02*
X539Y522D01*
X486Y521D02*
X517Y521D01*
X529Y521D02*
X539Y521D01*
X487Y520D02*
X517Y520D01*
X529Y520D02*
X539Y520D01*
X488Y519D02*
X517Y519D01*
X529Y519D02*
X539Y519D01*
X489Y518D02*
X517Y518D01*
X529Y518D02*
X539Y518D01*
X490Y517D02*
X517Y517D01*
X529Y517D02*
X538Y517D01*
X491Y516D02*
X517Y516D01*
X530Y516D02*
X538Y516D01*
X492Y515D02*
X517Y515D01*
X530Y515D02*
X538Y515D01*
X494Y514D02*
X516Y514D01*
X531Y514D02*
X537Y514D01*
X496Y513D02*
X515Y513D01*
X532Y513D02*
X536Y513D01*
X496Y489D02*
X525Y489D01*
X494Y488D02*
X528Y488D01*
X492Y487D02*
X529Y487D01*
X491Y486D02*
X530Y486D01*
X490Y485D02*
X531Y485D01*
X489Y484D02*
X532Y484D01*
X488Y483D02*
X533Y483D01*
X487Y482D02*
X534Y482D01*
X486Y481D02*
X535Y481D01*
X486Y480D02*
X536Y480D01*
X485Y479D02*
X497Y479D01*
X524Y479D02*
X536Y479D01*
X484Y478D02*
X496Y478D01*
X525Y478D02*
X537Y478D01*
X484Y477D02*
X495Y477D01*
X526Y477D02*
X537Y477D01*
X484Y476D02*
X494Y476D01*
X527Y476D02*
X538Y476D01*
X483Y475D02*
X493Y475D01*
X528Y475D02*
X538Y475D01*
X483Y474D02*
X493Y474D01*
X528Y474D02*
X538Y474D01*
X483Y473D02*
X492Y473D01*
X529Y473D02*
X538Y473D01*
X483Y472D02*
X492Y472D01*
X529Y472D02*
X538Y472D01*
X483Y471D02*
X492Y471D01*
X529Y471D02*
X539Y471D01*
X483Y470D02*
X492Y470D01*
X529Y470D02*
X539Y470D01*
X483Y469D02*
X492Y469D01*
X529Y469D02*
X539Y469D01*
X483Y468D02*
X492Y468D01*
X529Y468D02*
X539Y468D01*
X483Y467D02*
X492Y467D01*
X529Y467D02*
X539Y467D01*
X483Y466D02*
X492Y466D01*
X529Y466D02*
X539Y466D01*
X483Y465D02*
X492Y465D01*
X529Y465D02*
X539Y465D01*
X483Y464D02*
X492Y464D01*
X529Y464D02*
X539Y464D01*
X483Y463D02*
X492Y463D01*
X529Y463D02*
X538Y463D01*
X483Y462D02*
X492Y462D01*
X529Y462D02*
X538Y462D01*
X483Y461D02*
X493Y461D01*
X529Y461D02*
X538Y461D01*
X483Y460D02*
X494Y460D01*
X528Y460D02*
X538Y460D01*
X484Y459D02*
X494Y459D01*
X527Y459D02*
X538Y459D01*
X484Y458D02*
X495Y458D01*
X526Y458D02*
X537Y458D01*
X484Y457D02*
X496Y457D01*
X525Y457D02*
X537Y457D01*
X485Y456D02*
X497Y456D01*
X524Y456D02*
X536Y456D01*
X486Y455D02*
X498Y455D01*
X523Y455D02*
X536Y455D01*
X486Y454D02*
X499Y454D01*
X523Y454D02*
X535Y454D01*
X487Y453D02*
X500Y453D01*
X522Y453D02*
X534Y453D01*
X488Y452D02*
X500Y452D01*
X521Y452D02*
X534Y452D01*
X489Y451D02*
X502Y451D01*
X520Y451D02*
X533Y451D01*
X466Y450D02*
X534Y450D01*
X464Y449D02*
X537Y449D01*
X463Y448D02*
X538Y448D01*
X462Y447D02*
X538Y447D01*
X462Y446D02*
X538Y446D01*
X462Y445D02*
X538Y445D01*
X462Y444D02*
X538Y444D01*
X462Y443D02*
X538Y443D01*
X463Y442D02*
X537Y442D01*
X464Y441D02*
X536Y441D01*
D02*
G04 End of Copper0*
M02*