; NON-PLATED HOLES START AT T1
; THROUGH (PLATED) HOLES START AT T100
M48
INCH
T100C0.038000
T101C0.040000
%
T100
X009826Y009064
X005826Y002064
X009826Y010064
X000826Y016064
X000826Y005064
X009826Y005064
X000826Y015064
X009826Y003064
X003826Y002064
X009826Y012064
X009826Y006064
X009826Y011064
X000826Y004064
X009826Y007064
X000826Y007064
X000826Y009064
X000826Y013064
X000826Y017064
X009826Y004064
X009826Y008064
X009826Y014064
X009826Y015064
X009826Y016064
X004826Y002064
X009826Y013064
X009826Y017064
X000826Y003064
X006826Y002064
X002826Y002064
X000826Y006064
X000826Y008064
X000826Y011064
X000826Y014064
X000826Y012064
X000826Y010064
T101
X002858Y016064
X006795Y016064
X004826Y016064
T00
M30
