G04 MADE WITH FRITZING*
G04 WWW.FRITZING.ORG*
G04 SINGLE SIDED*
G04 HOLES NOT PLATED*
G04 CONTOUR ON CENTER OF CONTOUR VECTOR*
%ASAXBY*%
%FSLAX23Y23*%
%MOIN*%
%OFA0B0*%
%SFA1.0B1.0*%
%ADD10C,0.080000*%
%ADD11C,0.078000*%
%ADD12R,0.080000X0.080000*%
%ADD13C,0.024000*%
%ADD14C,0.032000*%
%ADD15R,0.001000X0.001000*%
%LNCOPPER0*%
G90*
G70*
G54D10*
X286Y1606D03*
X483Y1606D03*
X680Y1606D03*
G54D11*
X283Y206D03*
X383Y206D03*
X483Y206D03*
X583Y206D03*
X683Y206D03*
X83Y1706D03*
X83Y1606D03*
X83Y1506D03*
X83Y1406D03*
X83Y1306D03*
X83Y1206D03*
X83Y1106D03*
X83Y1006D03*
X83Y906D03*
X83Y806D03*
X83Y706D03*
X83Y606D03*
X83Y506D03*
X83Y406D03*
X83Y306D03*
X983Y1706D03*
X983Y1606D03*
X983Y1506D03*
X983Y1406D03*
X983Y1306D03*
X983Y1206D03*
X983Y1106D03*
X983Y1006D03*
X983Y906D03*
X983Y806D03*
X983Y706D03*
X983Y606D03*
X983Y506D03*
X983Y406D03*
X983Y306D03*
G54D12*
X286Y1606D03*
G54D13*
X83Y206D02*
X253Y206D01*
D02*
X85Y308D02*
X83Y206D01*
G54D14*
D02*
X286Y1570D02*
X283Y242D01*
G54D13*
D02*
X883Y1407D02*
X983Y1406D01*
D02*
X883Y1806D02*
X883Y1407D01*
D02*
X482Y1806D02*
X883Y1806D01*
D02*
X483Y1638D02*
X482Y1806D01*
G54D14*
D02*
X783Y1606D02*
X716Y1606D01*
D02*
X783Y206D02*
X783Y1606D01*
D02*
X718Y206D02*
X783Y206D01*
G54D13*
D02*
X783Y406D02*
X983Y408D01*
D02*
X783Y206D02*
X783Y406D01*
D02*
X713Y206D02*
X783Y206D01*
G54D15*
X506Y1208D02*
X536Y1208D01*
X505Y1207D02*
X549Y1207D01*
X504Y1206D02*
X551Y1206D01*
X504Y1205D02*
X553Y1205D01*
X504Y1204D02*
X554Y1204D01*
X504Y1203D02*
X555Y1203D01*
X504Y1202D02*
X556Y1202D01*
X505Y1201D02*
X557Y1201D01*
X506Y1200D02*
X558Y1200D01*
X508Y1199D02*
X558Y1199D01*
X535Y1198D02*
X558Y1198D01*
X548Y1197D02*
X559Y1197D01*
X549Y1196D02*
X559Y1196D01*
X550Y1195D02*
X559Y1195D01*
X550Y1194D02*
X559Y1194D01*
X550Y1193D02*
X559Y1193D01*
X550Y1192D02*
X559Y1192D01*
X550Y1191D02*
X559Y1191D01*
X550Y1190D02*
X559Y1190D01*
X550Y1189D02*
X559Y1189D01*
X550Y1188D02*
X559Y1188D01*
X550Y1187D02*
X559Y1187D01*
X550Y1186D02*
X559Y1186D01*
X550Y1185D02*
X559Y1185D01*
X549Y1184D02*
X559Y1184D01*
X549Y1183D02*
X559Y1183D01*
X548Y1182D02*
X559Y1182D01*
X547Y1181D02*
X558Y1181D01*
X547Y1180D02*
X558Y1180D01*
X546Y1179D02*
X557Y1179D01*
X546Y1178D02*
X556Y1178D01*
X545Y1177D02*
X556Y1177D01*
X544Y1176D02*
X555Y1176D01*
X544Y1175D02*
X555Y1175D01*
X543Y1174D02*
X554Y1174D01*
X542Y1173D02*
X553Y1173D01*
X542Y1172D02*
X553Y1172D01*
X541Y1171D02*
X552Y1171D01*
X540Y1170D02*
X551Y1170D01*
X508Y1169D02*
X556Y1169D01*
X506Y1168D02*
X558Y1168D01*
X505Y1167D02*
X558Y1167D01*
X504Y1166D02*
X559Y1166D01*
X504Y1165D02*
X559Y1165D01*
X504Y1164D02*
X559Y1164D01*
X504Y1163D02*
X559Y1163D01*
X504Y1162D02*
X559Y1162D01*
X505Y1161D02*
X558Y1161D01*
X506Y1160D02*
X557Y1160D01*
X548Y1136D02*
X557Y1136D01*
X547Y1135D02*
X558Y1135D01*
X507Y1134D02*
X510Y1134D01*
X546Y1134D02*
X559Y1134D01*
X505Y1133D02*
X511Y1133D01*
X545Y1133D02*
X559Y1133D01*
X504Y1132D02*
X512Y1132D01*
X544Y1132D02*
X559Y1132D01*
X504Y1131D02*
X512Y1131D01*
X543Y1131D02*
X559Y1131D01*
X504Y1130D02*
X513Y1130D01*
X542Y1130D02*
X559Y1130D01*
X504Y1129D02*
X513Y1129D01*
X541Y1129D02*
X559Y1129D01*
X504Y1128D02*
X513Y1128D01*
X540Y1128D02*
X559Y1128D01*
X504Y1127D02*
X513Y1127D01*
X539Y1127D02*
X559Y1127D01*
X504Y1126D02*
X513Y1126D01*
X539Y1126D02*
X559Y1126D01*
X504Y1125D02*
X513Y1125D01*
X538Y1125D02*
X559Y1125D01*
X504Y1124D02*
X513Y1124D01*
X537Y1124D02*
X559Y1124D01*
X504Y1123D02*
X513Y1123D01*
X536Y1123D02*
X559Y1123D01*
X504Y1122D02*
X513Y1122D01*
X535Y1122D02*
X548Y1122D01*
X550Y1122D02*
X559Y1122D01*
X504Y1121D02*
X513Y1121D01*
X534Y1121D02*
X547Y1121D01*
X550Y1121D02*
X559Y1121D01*
X504Y1120D02*
X513Y1120D01*
X533Y1120D02*
X546Y1120D01*
X550Y1120D02*
X559Y1120D01*
X504Y1119D02*
X513Y1119D01*
X532Y1119D02*
X545Y1119D01*
X550Y1119D02*
X559Y1119D01*
X504Y1118D02*
X513Y1118D01*
X531Y1118D02*
X544Y1118D01*
X550Y1118D02*
X559Y1118D01*
X504Y1117D02*
X513Y1117D01*
X530Y1117D02*
X543Y1117D01*
X550Y1117D02*
X559Y1117D01*
X504Y1116D02*
X513Y1116D01*
X529Y1116D02*
X542Y1116D01*
X550Y1116D02*
X559Y1116D01*
X504Y1115D02*
X513Y1115D01*
X528Y1115D02*
X541Y1115D01*
X550Y1115D02*
X559Y1115D01*
X504Y1114D02*
X513Y1114D01*
X527Y1114D02*
X540Y1114D01*
X550Y1114D02*
X559Y1114D01*
X504Y1113D02*
X513Y1113D01*
X526Y1113D02*
X539Y1113D01*
X550Y1113D02*
X559Y1113D01*
X504Y1112D02*
X513Y1112D01*
X525Y1112D02*
X538Y1112D01*
X550Y1112D02*
X559Y1112D01*
X504Y1111D02*
X513Y1111D01*
X524Y1111D02*
X537Y1111D01*
X550Y1111D02*
X559Y1111D01*
X504Y1110D02*
X513Y1110D01*
X523Y1110D02*
X536Y1110D01*
X550Y1110D02*
X559Y1110D01*
X504Y1109D02*
X513Y1109D01*
X522Y1109D02*
X535Y1109D01*
X550Y1109D02*
X559Y1109D01*
X504Y1108D02*
X513Y1108D01*
X521Y1108D02*
X534Y1108D01*
X550Y1108D02*
X559Y1108D01*
X504Y1107D02*
X513Y1107D01*
X520Y1107D02*
X533Y1107D01*
X550Y1107D02*
X559Y1107D01*
X504Y1106D02*
X513Y1106D01*
X519Y1106D02*
X532Y1106D01*
X550Y1106D02*
X559Y1106D01*
X504Y1105D02*
X513Y1105D01*
X518Y1105D02*
X531Y1105D01*
X550Y1105D02*
X559Y1105D01*
X504Y1104D02*
X513Y1104D01*
X517Y1104D02*
X530Y1104D01*
X550Y1104D02*
X559Y1104D01*
X504Y1103D02*
X513Y1103D01*
X516Y1103D02*
X529Y1103D01*
X550Y1103D02*
X559Y1103D01*
X504Y1102D02*
X513Y1102D01*
X515Y1102D02*
X528Y1102D01*
X550Y1102D02*
X559Y1102D01*
X504Y1101D02*
X513Y1101D01*
X515Y1101D02*
X527Y1101D01*
X550Y1101D02*
X559Y1101D01*
X504Y1100D02*
X526Y1100D01*
X550Y1100D02*
X559Y1100D01*
X504Y1099D02*
X526Y1099D01*
X550Y1099D02*
X559Y1099D01*
X504Y1098D02*
X525Y1098D01*
X550Y1098D02*
X559Y1098D01*
X504Y1097D02*
X524Y1097D01*
X550Y1097D02*
X559Y1097D01*
X504Y1096D02*
X523Y1096D01*
X550Y1096D02*
X559Y1096D01*
X504Y1095D02*
X522Y1095D01*
X550Y1095D02*
X559Y1095D01*
X504Y1094D02*
X521Y1094D01*
X550Y1094D02*
X559Y1094D01*
X504Y1093D02*
X520Y1093D01*
X550Y1093D02*
X559Y1093D01*
X504Y1092D02*
X519Y1092D01*
X550Y1092D02*
X559Y1092D01*
X504Y1091D02*
X518Y1091D01*
X551Y1091D02*
X559Y1091D01*
X504Y1090D02*
X517Y1090D01*
X551Y1090D02*
X559Y1090D01*
X505Y1089D02*
X516Y1089D01*
X552Y1089D02*
X558Y1089D01*
X506Y1088D02*
X515Y1088D01*
X553Y1088D02*
X557Y1088D01*
X535Y1064D02*
X550Y1064D01*
X533Y1063D02*
X552Y1063D01*
X531Y1062D02*
X553Y1062D01*
X530Y1061D02*
X554Y1061D01*
X529Y1060D02*
X555Y1060D01*
X528Y1059D02*
X556Y1059D01*
X527Y1058D02*
X557Y1058D01*
X527Y1057D02*
X558Y1057D01*
X526Y1056D02*
X558Y1056D01*
X526Y1055D02*
X559Y1055D01*
X506Y1054D02*
X511Y1054D01*
X525Y1054D02*
X536Y1054D01*
X548Y1054D02*
X559Y1054D01*
X505Y1053D02*
X512Y1053D01*
X525Y1053D02*
X535Y1053D01*
X549Y1053D02*
X559Y1053D01*
X504Y1052D02*
X512Y1052D01*
X525Y1052D02*
X534Y1052D01*
X550Y1052D02*
X559Y1052D01*
X504Y1051D02*
X513Y1051D01*
X525Y1051D02*
X534Y1051D01*
X550Y1051D02*
X559Y1051D01*
X504Y1050D02*
X513Y1050D01*
X525Y1050D02*
X534Y1050D01*
X550Y1050D02*
X559Y1050D01*
X504Y1049D02*
X513Y1049D01*
X525Y1049D02*
X534Y1049D01*
X550Y1049D02*
X559Y1049D01*
X504Y1048D02*
X513Y1048D01*
X525Y1048D02*
X534Y1048D01*
X550Y1048D02*
X559Y1048D01*
X504Y1047D02*
X513Y1047D01*
X525Y1047D02*
X534Y1047D01*
X550Y1047D02*
X559Y1047D01*
X504Y1046D02*
X513Y1046D01*
X525Y1046D02*
X534Y1046D01*
X550Y1046D02*
X559Y1046D01*
X504Y1045D02*
X513Y1045D01*
X525Y1045D02*
X534Y1045D01*
X550Y1045D02*
X559Y1045D01*
X504Y1044D02*
X513Y1044D01*
X525Y1044D02*
X534Y1044D01*
X550Y1044D02*
X559Y1044D01*
X504Y1043D02*
X513Y1043D01*
X525Y1043D02*
X534Y1043D01*
X550Y1043D02*
X559Y1043D01*
X504Y1042D02*
X513Y1042D01*
X525Y1042D02*
X534Y1042D01*
X550Y1042D02*
X559Y1042D01*
X504Y1041D02*
X513Y1041D01*
X525Y1041D02*
X534Y1041D01*
X550Y1041D02*
X559Y1041D01*
X504Y1040D02*
X513Y1040D01*
X525Y1040D02*
X534Y1040D01*
X550Y1040D02*
X559Y1040D01*
X504Y1039D02*
X513Y1039D01*
X525Y1039D02*
X534Y1039D01*
X550Y1039D02*
X559Y1039D01*
X504Y1038D02*
X513Y1038D01*
X525Y1038D02*
X534Y1038D01*
X550Y1038D02*
X559Y1038D01*
X504Y1037D02*
X513Y1037D01*
X525Y1037D02*
X534Y1037D01*
X550Y1037D02*
X559Y1037D01*
X504Y1036D02*
X513Y1036D01*
X525Y1036D02*
X534Y1036D01*
X550Y1036D02*
X559Y1036D01*
X504Y1035D02*
X513Y1035D01*
X525Y1035D02*
X534Y1035D01*
X549Y1035D02*
X559Y1035D01*
X504Y1034D02*
X513Y1034D01*
X525Y1034D02*
X534Y1034D01*
X549Y1034D02*
X559Y1034D01*
X504Y1033D02*
X513Y1033D01*
X525Y1033D02*
X534Y1033D01*
X548Y1033D02*
X559Y1033D01*
X504Y1032D02*
X513Y1032D01*
X525Y1032D02*
X534Y1032D01*
X548Y1032D02*
X558Y1032D01*
X504Y1031D02*
X513Y1031D01*
X525Y1031D02*
X534Y1031D01*
X547Y1031D02*
X558Y1031D01*
X504Y1030D02*
X513Y1030D01*
X525Y1030D02*
X534Y1030D01*
X547Y1030D02*
X557Y1030D01*
X504Y1029D02*
X513Y1029D01*
X525Y1029D02*
X534Y1029D01*
X546Y1029D02*
X557Y1029D01*
X504Y1028D02*
X514Y1028D01*
X525Y1028D02*
X535Y1028D01*
X545Y1028D02*
X556Y1028D01*
X504Y1027D02*
X516Y1027D01*
X525Y1027D02*
X536Y1027D01*
X545Y1027D02*
X555Y1027D01*
X505Y1026D02*
X538Y1026D01*
X544Y1026D02*
X555Y1026D01*
X505Y1025D02*
X556Y1025D01*
X506Y1024D02*
X558Y1024D01*
X506Y1023D02*
X559Y1023D01*
X507Y1022D02*
X559Y1022D01*
X508Y1021D02*
X559Y1021D01*
X509Y1020D02*
X559Y1020D01*
X510Y1019D02*
X559Y1019D01*
X512Y1018D02*
X559Y1018D01*
X515Y1017D02*
X558Y1017D01*
X530Y1016D02*
X557Y1016D01*
X506Y987D02*
X511Y987D01*
X553Y987D02*
X557Y987D01*
X505Y986D02*
X512Y986D01*
X551Y986D02*
X558Y986D01*
X504Y985D02*
X512Y985D01*
X551Y985D02*
X559Y985D01*
X504Y984D02*
X513Y984D01*
X551Y984D02*
X559Y984D01*
X504Y983D02*
X513Y983D01*
X550Y983D02*
X559Y983D01*
X504Y982D02*
X513Y982D01*
X550Y982D02*
X559Y982D01*
X504Y981D02*
X513Y981D01*
X550Y981D02*
X559Y981D01*
X504Y980D02*
X513Y980D01*
X550Y980D02*
X559Y980D01*
X504Y979D02*
X513Y979D01*
X550Y979D02*
X559Y979D01*
X483Y978D02*
X487Y978D01*
X504Y978D02*
X513Y978D01*
X550Y978D02*
X559Y978D01*
X480Y977D02*
X490Y977D01*
X504Y977D02*
X513Y977D01*
X550Y977D02*
X559Y977D01*
X479Y976D02*
X490Y976D01*
X504Y976D02*
X513Y976D01*
X550Y976D02*
X559Y976D01*
X479Y975D02*
X491Y975D01*
X504Y975D02*
X513Y975D01*
X550Y975D02*
X559Y975D01*
X478Y974D02*
X491Y974D01*
X504Y974D02*
X513Y974D01*
X550Y974D02*
X559Y974D01*
X478Y973D02*
X492Y973D01*
X504Y973D02*
X559Y973D01*
X478Y972D02*
X492Y972D01*
X504Y972D02*
X559Y972D01*
X478Y971D02*
X492Y971D01*
X504Y971D02*
X559Y971D01*
X478Y970D02*
X492Y970D01*
X504Y970D02*
X559Y970D01*
X478Y969D02*
X492Y969D01*
X504Y969D02*
X559Y969D01*
X478Y968D02*
X492Y968D01*
X504Y968D02*
X559Y968D01*
X478Y967D02*
X491Y967D01*
X504Y967D02*
X559Y967D01*
X479Y966D02*
X491Y966D01*
X504Y966D02*
X559Y966D01*
X479Y965D02*
X490Y965D01*
X505Y965D02*
X559Y965D01*
X480Y964D02*
X489Y964D01*
X506Y964D02*
X559Y964D01*
X550Y963D02*
X559Y963D01*
X550Y962D02*
X559Y962D01*
X550Y961D02*
X559Y961D01*
X550Y960D02*
X559Y960D01*
X550Y959D02*
X559Y959D01*
X550Y958D02*
X559Y958D01*
X550Y957D02*
X559Y957D01*
X550Y956D02*
X559Y956D01*
X550Y955D02*
X559Y955D01*
X550Y954D02*
X559Y954D01*
X550Y953D02*
X559Y953D01*
X551Y952D02*
X559Y952D01*
X551Y951D02*
X559Y951D01*
X552Y950D02*
X558Y950D01*
X553Y949D02*
X557Y949D01*
X506Y920D02*
X557Y920D01*
X505Y919D02*
X558Y919D01*
X504Y918D02*
X559Y918D01*
X504Y917D02*
X559Y917D01*
X504Y916D02*
X559Y916D01*
X504Y915D02*
X559Y915D01*
X504Y914D02*
X559Y914D01*
X505Y913D02*
X558Y913D01*
X506Y912D02*
X557Y912D01*
X508Y911D02*
X555Y911D01*
X514Y910D02*
X526Y910D01*
X513Y909D02*
X525Y909D01*
X512Y908D02*
X525Y908D01*
X511Y907D02*
X524Y907D01*
X511Y906D02*
X523Y906D01*
X510Y905D02*
X522Y905D01*
X509Y904D02*
X521Y904D01*
X508Y903D02*
X520Y903D01*
X507Y902D02*
X519Y902D01*
X506Y901D02*
X519Y901D01*
X505Y900D02*
X518Y900D01*
X505Y899D02*
X517Y899D01*
X504Y898D02*
X516Y898D01*
X504Y897D02*
X515Y897D01*
X504Y896D02*
X514Y896D01*
X504Y895D02*
X513Y895D01*
X504Y894D02*
X513Y894D01*
X504Y893D02*
X513Y893D01*
X504Y892D02*
X513Y892D01*
X504Y891D02*
X513Y891D01*
X504Y890D02*
X513Y890D01*
X504Y889D02*
X513Y889D01*
X504Y888D02*
X513Y888D01*
X504Y887D02*
X513Y887D01*
X504Y886D02*
X513Y886D01*
X504Y885D02*
X513Y885D01*
X504Y884D02*
X513Y884D01*
X504Y883D02*
X514Y883D01*
X504Y882D02*
X515Y882D01*
X505Y881D02*
X522Y881D01*
X505Y880D02*
X524Y880D01*
X506Y879D02*
X525Y879D01*
X506Y878D02*
X525Y878D01*
X507Y877D02*
X525Y877D01*
X508Y876D02*
X525Y876D01*
X509Y875D02*
X525Y875D01*
X510Y874D02*
X525Y874D01*
X512Y873D02*
X524Y873D01*
X514Y872D02*
X523Y872D01*
X535Y776D02*
X550Y776D01*
X533Y775D02*
X552Y775D01*
X531Y774D02*
X553Y774D01*
X530Y773D02*
X554Y773D01*
X529Y772D02*
X555Y772D01*
X528Y771D02*
X556Y771D01*
X527Y770D02*
X557Y770D01*
X527Y769D02*
X558Y769D01*
X526Y768D02*
X558Y768D01*
X526Y767D02*
X559Y767D01*
X506Y766D02*
X511Y766D01*
X525Y766D02*
X536Y766D01*
X548Y766D02*
X559Y766D01*
X505Y765D02*
X512Y765D01*
X525Y765D02*
X535Y765D01*
X549Y765D02*
X559Y765D01*
X504Y764D02*
X512Y764D01*
X525Y764D02*
X534Y764D01*
X550Y764D02*
X559Y764D01*
X504Y763D02*
X513Y763D01*
X525Y763D02*
X534Y763D01*
X550Y763D02*
X559Y763D01*
X504Y762D02*
X513Y762D01*
X525Y762D02*
X534Y762D01*
X550Y762D02*
X559Y762D01*
X504Y761D02*
X513Y761D01*
X525Y761D02*
X534Y761D01*
X550Y761D02*
X559Y761D01*
X504Y760D02*
X513Y760D01*
X525Y760D02*
X534Y760D01*
X550Y760D02*
X559Y760D01*
X504Y759D02*
X513Y759D01*
X525Y759D02*
X534Y759D01*
X550Y759D02*
X559Y759D01*
X504Y758D02*
X513Y758D01*
X525Y758D02*
X534Y758D01*
X550Y758D02*
X559Y758D01*
X504Y757D02*
X513Y757D01*
X525Y757D02*
X534Y757D01*
X550Y757D02*
X559Y757D01*
X504Y756D02*
X513Y756D01*
X525Y756D02*
X534Y756D01*
X550Y756D02*
X559Y756D01*
X504Y755D02*
X513Y755D01*
X525Y755D02*
X534Y755D01*
X550Y755D02*
X559Y755D01*
X504Y754D02*
X513Y754D01*
X525Y754D02*
X534Y754D01*
X550Y754D02*
X559Y754D01*
X504Y753D02*
X513Y753D01*
X525Y753D02*
X534Y753D01*
X550Y753D02*
X559Y753D01*
X504Y752D02*
X513Y752D01*
X525Y752D02*
X534Y752D01*
X550Y752D02*
X559Y752D01*
X504Y751D02*
X513Y751D01*
X525Y751D02*
X534Y751D01*
X550Y751D02*
X559Y751D01*
X504Y750D02*
X513Y750D01*
X525Y750D02*
X534Y750D01*
X550Y750D02*
X559Y750D01*
X504Y749D02*
X513Y749D01*
X525Y749D02*
X534Y749D01*
X550Y749D02*
X559Y749D01*
X504Y748D02*
X513Y748D01*
X525Y748D02*
X534Y748D01*
X550Y748D02*
X559Y748D01*
X504Y747D02*
X513Y747D01*
X525Y747D02*
X534Y747D01*
X549Y747D02*
X559Y747D01*
X504Y746D02*
X513Y746D01*
X525Y746D02*
X534Y746D01*
X549Y746D02*
X559Y746D01*
X504Y745D02*
X513Y745D01*
X525Y745D02*
X534Y745D01*
X548Y745D02*
X559Y745D01*
X504Y744D02*
X513Y744D01*
X525Y744D02*
X534Y744D01*
X548Y744D02*
X558Y744D01*
X504Y743D02*
X513Y743D01*
X525Y743D02*
X534Y743D01*
X547Y743D02*
X558Y743D01*
X504Y742D02*
X513Y742D01*
X525Y742D02*
X534Y742D01*
X547Y742D02*
X557Y742D01*
X504Y741D02*
X513Y741D01*
X525Y741D02*
X534Y741D01*
X546Y741D02*
X557Y741D01*
X504Y740D02*
X514Y740D01*
X525Y740D02*
X535Y740D01*
X545Y740D02*
X556Y740D01*
X504Y739D02*
X516Y739D01*
X525Y739D02*
X536Y739D01*
X545Y739D02*
X555Y739D01*
X505Y738D02*
X538Y738D01*
X544Y738D02*
X555Y738D01*
X505Y737D02*
X556Y737D01*
X506Y736D02*
X558Y736D01*
X506Y735D02*
X559Y735D01*
X507Y734D02*
X559Y734D01*
X508Y733D02*
X559Y733D01*
X509Y732D02*
X559Y732D01*
X510Y731D02*
X559Y731D01*
X512Y730D02*
X559Y730D01*
X515Y729D02*
X558Y729D01*
X531Y728D02*
X557Y728D01*
X485Y704D02*
X557Y704D01*
X484Y703D02*
X558Y703D01*
X483Y702D02*
X559Y702D01*
X483Y701D02*
X559Y701D01*
X483Y700D02*
X559Y700D01*
X483Y699D02*
X559Y699D01*
X483Y698D02*
X559Y698D01*
X484Y697D02*
X558Y697D01*
X484Y696D02*
X557Y696D01*
X487Y695D02*
X555Y695D01*
X512Y694D02*
X523Y694D01*
X511Y693D02*
X522Y693D01*
X510Y692D02*
X521Y692D01*
X510Y691D02*
X521Y691D01*
X509Y690D02*
X520Y690D01*
X508Y689D02*
X519Y689D01*
X508Y688D02*
X519Y688D01*
X507Y687D02*
X518Y687D01*
X507Y686D02*
X518Y686D01*
X506Y685D02*
X517Y685D01*
X505Y684D02*
X516Y684D01*
X505Y683D02*
X516Y683D01*
X505Y682D02*
X515Y682D01*
X504Y681D02*
X514Y681D01*
X504Y680D02*
X514Y680D01*
X504Y679D02*
X513Y679D01*
X504Y678D02*
X513Y678D01*
X504Y677D02*
X513Y677D01*
X504Y676D02*
X513Y676D01*
X504Y675D02*
X513Y675D01*
X504Y674D02*
X513Y674D01*
X504Y673D02*
X513Y673D01*
X504Y672D02*
X513Y672D01*
X504Y671D02*
X513Y671D01*
X504Y670D02*
X513Y670D01*
X504Y669D02*
X514Y669D01*
X504Y668D02*
X514Y668D01*
X504Y667D02*
X516Y667D01*
X505Y666D02*
X533Y666D01*
X505Y665D02*
X556Y665D01*
X506Y664D02*
X558Y664D01*
X506Y663D02*
X558Y663D01*
X507Y662D02*
X559Y662D01*
X508Y661D02*
X559Y661D01*
X509Y660D02*
X559Y660D01*
X510Y659D02*
X559Y659D01*
X512Y658D02*
X559Y658D01*
X515Y657D02*
X558Y657D01*
X532Y656D02*
X557Y656D01*
X506Y633D02*
X557Y633D01*
X505Y632D02*
X558Y632D01*
X504Y631D02*
X559Y631D01*
X504Y630D02*
X559Y630D01*
X504Y629D02*
X559Y629D01*
X504Y628D02*
X559Y628D01*
X504Y627D02*
X559Y627D01*
X505Y626D02*
X559Y626D01*
X505Y625D02*
X558Y625D01*
X507Y624D02*
X556Y624D01*
X506Y623D02*
X519Y623D01*
X506Y622D02*
X518Y622D01*
X505Y621D02*
X517Y621D01*
X505Y620D02*
X516Y620D01*
X504Y619D02*
X515Y619D01*
X504Y618D02*
X514Y618D01*
X504Y617D02*
X514Y617D01*
X504Y616D02*
X513Y616D01*
X504Y615D02*
X513Y615D01*
X504Y614D02*
X513Y614D01*
X504Y613D02*
X555Y613D01*
X504Y612D02*
X557Y612D01*
X504Y611D02*
X558Y611D01*
X505Y610D02*
X559Y610D01*
X505Y609D02*
X559Y609D01*
X506Y608D02*
X559Y608D01*
X507Y607D02*
X559Y607D01*
X508Y606D02*
X559Y606D01*
X508Y605D02*
X558Y605D01*
X507Y604D02*
X557Y604D01*
X506Y603D02*
X519Y603D01*
X506Y602D02*
X518Y602D01*
X505Y601D02*
X517Y601D01*
X505Y600D02*
X516Y600D01*
X504Y599D02*
X515Y599D01*
X504Y598D02*
X514Y598D01*
X504Y597D02*
X513Y597D01*
X504Y596D02*
X513Y596D01*
X504Y595D02*
X513Y595D01*
X504Y594D02*
X515Y594D01*
X504Y593D02*
X542Y593D01*
X505Y592D02*
X556Y592D01*
X505Y591D02*
X558Y591D01*
X506Y590D02*
X559Y590D01*
X506Y589D02*
X559Y589D01*
X507Y588D02*
X559Y588D01*
X508Y587D02*
X559Y587D01*
X509Y586D02*
X559Y586D01*
X511Y585D02*
X559Y585D01*
X515Y584D02*
X558Y584D01*
X540Y583D02*
X557Y583D01*
X517Y560D02*
X547Y560D01*
X515Y559D02*
X549Y559D01*
X513Y558D02*
X550Y558D01*
X512Y557D02*
X551Y557D01*
X511Y556D02*
X552Y556D01*
X510Y555D02*
X553Y555D01*
X509Y554D02*
X554Y554D01*
X508Y553D02*
X555Y553D01*
X507Y552D02*
X556Y552D01*
X506Y551D02*
X557Y551D01*
X506Y550D02*
X518Y550D01*
X529Y550D02*
X538Y550D01*
X545Y550D02*
X557Y550D01*
X505Y549D02*
X517Y549D01*
X529Y549D02*
X538Y549D01*
X546Y549D02*
X558Y549D01*
X505Y548D02*
X516Y548D01*
X529Y548D02*
X538Y548D01*
X547Y548D02*
X558Y548D01*
X504Y547D02*
X515Y547D01*
X529Y547D02*
X538Y547D01*
X548Y547D02*
X559Y547D01*
X504Y546D02*
X514Y546D01*
X529Y546D02*
X538Y546D01*
X549Y546D02*
X559Y546D01*
X504Y545D02*
X514Y545D01*
X529Y545D02*
X538Y545D01*
X549Y545D02*
X559Y545D01*
X504Y544D02*
X513Y544D01*
X529Y544D02*
X538Y544D01*
X550Y544D02*
X559Y544D01*
X504Y543D02*
X513Y543D01*
X529Y543D02*
X538Y543D01*
X550Y543D02*
X559Y543D01*
X504Y542D02*
X513Y542D01*
X529Y542D02*
X538Y542D01*
X550Y542D02*
X559Y542D01*
X504Y541D02*
X513Y541D01*
X529Y541D02*
X538Y541D01*
X550Y541D02*
X559Y541D01*
X504Y540D02*
X513Y540D01*
X529Y540D02*
X538Y540D01*
X550Y540D02*
X559Y540D01*
X504Y539D02*
X513Y539D01*
X529Y539D02*
X538Y539D01*
X550Y539D02*
X559Y539D01*
X504Y538D02*
X513Y538D01*
X529Y538D02*
X538Y538D01*
X550Y538D02*
X559Y538D01*
X504Y537D02*
X513Y537D01*
X529Y537D02*
X538Y537D01*
X550Y537D02*
X559Y537D01*
X504Y536D02*
X513Y536D01*
X529Y536D02*
X538Y536D01*
X550Y536D02*
X559Y536D01*
X504Y535D02*
X513Y535D01*
X529Y535D02*
X538Y535D01*
X550Y535D02*
X559Y535D01*
X504Y534D02*
X513Y534D01*
X529Y534D02*
X538Y534D01*
X550Y534D02*
X559Y534D01*
X504Y533D02*
X513Y533D01*
X529Y533D02*
X538Y533D01*
X550Y533D02*
X559Y533D01*
X504Y532D02*
X513Y532D01*
X529Y532D02*
X538Y532D01*
X550Y532D02*
X559Y532D01*
X504Y531D02*
X513Y531D01*
X529Y531D02*
X538Y531D01*
X550Y531D02*
X559Y531D01*
X504Y530D02*
X513Y530D01*
X529Y530D02*
X538Y530D01*
X550Y530D02*
X559Y530D01*
X504Y529D02*
X513Y529D01*
X529Y529D02*
X538Y529D01*
X550Y529D02*
X559Y529D01*
X504Y528D02*
X513Y528D01*
X529Y528D02*
X538Y528D01*
X550Y528D02*
X559Y528D01*
X504Y527D02*
X514Y527D01*
X529Y527D02*
X538Y527D01*
X550Y527D02*
X559Y527D01*
X504Y526D02*
X514Y526D01*
X529Y526D02*
X538Y526D01*
X550Y526D02*
X559Y526D01*
X504Y525D02*
X515Y525D01*
X529Y525D02*
X538Y525D01*
X550Y525D02*
X559Y525D01*
X505Y524D02*
X516Y524D01*
X529Y524D02*
X538Y524D01*
X550Y524D02*
X559Y524D01*
X505Y523D02*
X517Y523D01*
X529Y523D02*
X538Y523D01*
X550Y523D02*
X559Y523D01*
X506Y522D02*
X518Y522D01*
X529Y522D02*
X538Y522D01*
X550Y522D02*
X559Y522D01*
X507Y521D02*
X538Y521D01*
X550Y521D02*
X559Y521D01*
X507Y520D02*
X538Y520D01*
X550Y520D02*
X559Y520D01*
X508Y519D02*
X538Y519D01*
X550Y519D02*
X559Y519D01*
X509Y518D02*
X538Y518D01*
X550Y518D02*
X559Y518D01*
X510Y517D02*
X538Y517D01*
X550Y517D02*
X559Y517D01*
X511Y516D02*
X538Y516D01*
X550Y516D02*
X559Y516D01*
X512Y515D02*
X538Y515D01*
X551Y515D02*
X559Y515D01*
X513Y514D02*
X538Y514D01*
X551Y514D02*
X559Y514D01*
X515Y513D02*
X537Y513D01*
X552Y513D02*
X558Y513D01*
X517Y512D02*
X536Y512D01*
X553Y512D02*
X557Y512D01*
X516Y488D02*
X547Y488D01*
X514Y487D02*
X549Y487D01*
X513Y486D02*
X550Y486D01*
X512Y485D02*
X551Y485D01*
X511Y484D02*
X552Y484D01*
X510Y483D02*
X553Y483D01*
X509Y482D02*
X554Y482D01*
X508Y481D02*
X555Y481D01*
X507Y480D02*
X556Y480D01*
X506Y479D02*
X557Y479D01*
X506Y478D02*
X518Y478D01*
X545Y478D02*
X557Y478D01*
X505Y477D02*
X517Y477D01*
X546Y477D02*
X558Y477D01*
X505Y476D02*
X516Y476D01*
X547Y476D02*
X558Y476D01*
X504Y475D02*
X515Y475D01*
X548Y475D02*
X559Y475D01*
X504Y474D02*
X514Y474D01*
X549Y474D02*
X559Y474D01*
X504Y473D02*
X514Y473D01*
X549Y473D02*
X559Y473D01*
X504Y472D02*
X513Y472D01*
X550Y472D02*
X559Y472D01*
X504Y471D02*
X513Y471D01*
X550Y471D02*
X559Y471D01*
X504Y470D02*
X513Y470D01*
X550Y470D02*
X559Y470D01*
X504Y469D02*
X513Y469D01*
X550Y469D02*
X559Y469D01*
X504Y468D02*
X513Y468D01*
X550Y468D02*
X559Y468D01*
X504Y467D02*
X513Y467D01*
X550Y467D02*
X559Y467D01*
X504Y466D02*
X513Y466D01*
X550Y466D02*
X559Y466D01*
X504Y465D02*
X513Y465D01*
X550Y465D02*
X559Y465D01*
X504Y464D02*
X513Y464D01*
X550Y464D02*
X559Y464D01*
X504Y463D02*
X513Y463D01*
X550Y463D02*
X559Y463D01*
X504Y462D02*
X513Y462D01*
X550Y462D02*
X559Y462D01*
X504Y461D02*
X513Y461D01*
X550Y461D02*
X559Y461D01*
X504Y460D02*
X514Y460D01*
X549Y460D02*
X559Y460D01*
X504Y459D02*
X515Y459D01*
X549Y459D02*
X559Y459D01*
X505Y458D02*
X515Y458D01*
X548Y458D02*
X559Y458D01*
X505Y457D02*
X516Y457D01*
X547Y457D02*
X558Y457D01*
X505Y456D02*
X517Y456D01*
X546Y456D02*
X558Y456D01*
X506Y455D02*
X518Y455D01*
X545Y455D02*
X557Y455D01*
X507Y454D02*
X519Y454D01*
X544Y454D02*
X557Y454D01*
X507Y453D02*
X520Y453D01*
X543Y453D02*
X556Y453D01*
X508Y452D02*
X521Y452D01*
X543Y452D02*
X555Y452D01*
X509Y451D02*
X521Y451D01*
X542Y451D02*
X554Y451D01*
X510Y450D02*
X523Y450D01*
X541Y450D02*
X553Y450D01*
X486Y449D02*
X556Y449D01*
X484Y448D02*
X558Y448D01*
X483Y447D02*
X559Y447D01*
X483Y446D02*
X559Y446D01*
X483Y445D02*
X559Y445D01*
X483Y444D02*
X559Y444D01*
X483Y443D02*
X559Y443D01*
X483Y442D02*
X559Y442D01*
X484Y441D02*
X558Y441D01*
X485Y440D02*
X557Y440D01*
D02*
G04 End of Copper0*
M02*